<svg width="784" height="768" viewBox="0 0 784 768" fill="none" xmlns="http://www.w3.org/2000/svg">
<rect x="142" y="618" width="498" height="61" fill="#221A38"/>
<path d="M583 561H701V619H583V561Z" fill="#221A38"/>
<path d="M640 505H758V561H640V505Z" fill="#221A38"/>
<path d="M640 505H701V679H640V505Z" fill="#221A38"/>
<rect x="700" y="145" width="58" height="360" fill="#221A38"/>
<rect x="758" y="145" width="26" height="416" fill="#221A38"/>
<path d="M0 145H26V619H0V145Z" fill="#221A38"/>
<rect x="83" y="705" width="26" height="617" transform="rotate(-90 83 705)" fill="#221A38"/>
<path d="M84 89V63L701 63V89L84 89Z" fill="#221A38"/>
<rect x="642" y="145" width="58" height="119" fill="#221A38"/>
<path d="M637 88H701V207H637V88Z" fill="#221A38"/>
<path d="M583 145H642V206H583V145Z" fill="#221A38"/>
<path d="M141 82H642V145H141V82Z" fill="#221A38"/>
<path d="M231 0H534V63H231V0Z" fill="#221A38"/>
<rect x="231" y="705" width="303" height="63" fill="#221A38"/>
<path d="M83 563H198V620H83V563Z" fill="#221A38"/>
<path d="M83 505H142V679H83V505Z" fill="#221A38"/>
<path d="M26 145H83V620H26V145Z" fill="#221A38"/>
<path d="M83 145H141V264H83V145Z" fill="#221A38"/>
<path d="M83 88H141V207H83V88Z" fill="#221A38"/>
<path d="M141 145H198V207H141V145Z" fill="#221A38"/>
</svg>
